<?xml version="1.0" encoding="UTF-8"?>
<mxfile host="app.diagrams.net" modified="2025-01-28T17:00:00.000Z" agent="5.0" etag="draw.io" version="24.7.17">
  <diagram name="VPBank Enterprise Architecture" id="vpbank-enterprise">
    <mxGraphModel dx="1422" dy="794" grid="1" gridSize="10" guides="1" tooltips="1" connect="1" arrows="1" fold="1" page="1" pageScale="1" pageWidth="1169" pageHeight="827" math="0" shadow="0">
      <root>
        <mxCell id="0" />
        <mxCell id="1" parent="0" />
        
        <!-- Title -->
        <mxCell id="title" value="VPBank K-MULT Enterprise Banking Architecture" style="text;html=1;strokeColor=none;fillColor=none;align=center;verticalAlign=middle;whiteSpace=wrap;rounded=0;fontSize=20;fontStyle=1;" vertex="1" parent="1">
          <mxGeometry x="300" y="20" width="569" height="30" as="geometry" />
        </mxCell>
        
        <!-- External Banking Ecosystem -->
        <mxCell id="external-cluster" value="External Banking Ecosystem" style="swimlane;whiteSpace=wrap;html=1;fillColor=#E8F4FD;strokeColor=#1E88E5;fontSize=14;fontStyle=1;" vertex="1" parent="1">
          <mxGeometry x="50" y="80" width="280" height="200" as="geometry" />
        </mxCell>
        
        <mxCell id="swift" value="SWIFT Network&#xa;(MT Messages)" style="rounded=1;whiteSpace=wrap;html=1;fillColor=#BBDEFB;strokeColor=#1976D2;" vertex="1" parent="external-cluster">
          <mxGeometry x="20" y="40" width="100" height="60" as="geometry" />
        </mxCell>
        
        <mxCell id="correspondent" value="Correspondent&#xa;Banks" style="rounded=1;whiteSpace=wrap;html=1;fillColor=#BBDEFB;strokeColor=#1976D2;" vertex="1" parent="external-cluster">
          <mxGeometry x="140" y="40" width="100" height="60" as="geometry" />
        </mxCell>
        
        <mxCell id="sbv" value="State Bank&#xa;of Vietnam (SBV)" style="rounded=1;whiteSpace=wrap;html=1;fillColor=#BBDEFB;strokeColor=#1976D2;" vertex="1" parent="external-cluster">
          <mxGeometry x="20" y="120" width="100" height="60" as="geometry" />
        </mxCell>
        
        <mxCell id="cic" value="Credit Information&#xa;Center (CIC)" style="rounded=1;whiteSpace=wrap;html=1;fillColor=#BBDEFB;strokeColor=#1976D2;" vertex="1" parent="external-cluster">
          <mxGeometry x="140" y="120" width="100" height="60" as="geometry" />
        </mxCell>
        
        <!-- Security Perimeter -->
        <mxCell id="security-cluster" value="Security Perimeter" style="swimlane;whiteSpace=wrap;html=1;fillColor=#FFF2E8;strokeColor=#FF9800;fontSize=14;fontStyle=1;" vertex="1" parent="1">
          <mxGeometry x="380" y="80" width="280" height="200" as="geometry" />
        </mxCell>
        
        <mxCell id="waf" value="AWS WAF&#xa;(DDoS Protection)" style="rounded=1;whiteSpace=wrap;html=1;fillColor=#FFE0B2;strokeColor=#F57C00;" vertex="1" parent="security-cluster">
          <mxGeometry x="20" y="40" width="100" height="60" as="geometry" />
        </mxCell>
        
        <mxCell id="api-gateway" value="API Gateway&#xa;(Rate Limiting)" style="rounded=1;whiteSpace=wrap;html=1;fillColor=#FFE0B2;strokeColor=#F57C00;" vertex="1" parent="security-cluster">
          <mxGeometry x="140" y="40" width="100" height="60" as="geometry" />
        </mxCell>
        
        <mxCell id="cloudfront" value="CloudFront&#xa;(Global CDN)" style="rounded=1;whiteSpace=wrap;html=1;fillColor=#FFE0B2;strokeColor=#F57C00;" vertex="1" parent="security-cluster">
          <mxGeometry x="20" y="120" width="100" height="60" as="geometry" />
        </mxCell>
        
        <mxCell id="shield" value="AWS Shield&#xa;(Advanced DDoS)" style="rounded=1;whiteSpace=wrap;html=1;fillColor=#FFE0B2;strokeColor=#F57C00;" vertex="1" parent="security-cluster">
          <mxGeometry x="140" y="120" width="100" height="60" as="geometry" />
        </mxCell>
        
        <!-- Multi-Agent Platform -->
        <mxCell id="platform-cluster" value="K-MULT Multi-Agent Platform (ECS Fargate)" style="swimlane;whiteSpace=wrap;html=1;fillColor=#F8F0FF;strokeColor=#9C27B0;fontSize=14;fontStyle=1;" vertex="1" parent="1">
          <mxGeometry x="710" y="80" width="400" height="200" as="geometry" />
        </mxCell>
        
        <mxCell id="supervisor" value="🎯 Supervisor&#xa;(Orchestration)" style="rounded=1;whiteSpace=wrap;html=1;fillColor=#E1BEE7;strokeColor=#7B1FA2;" vertex="1" parent="platform-cluster">
          <mxGeometry x="20" y="40" width="80" height="50" as="geometry" />
        </mxCell>
        
        <mxCell id="document" value="📄 Document&#xa;Intelligence" style="rounded=1;whiteSpace=wrap;html=1;fillColor=#E1BEE7;strokeColor=#7B1FA2;" vertex="1" parent="platform-cluster">
          <mxGeometry x="110" y="40" width="80" height="50" as="geometry" />
        </mxCell>
        
        <mxCell id="lc" value="💳 LC&#xa;Processing" style="rounded=1;whiteSpace=wrap;html=1;fillColor=#E1BEE7;strokeColor=#7B1FA2;" vertex="1" parent="platform-cluster">
          <mxGeometry x="200" y="40" width="80" height="50" as="geometry" />
        </mxCell>
        
        <mxCell id="credit" value="💰 Credit&#xa;Analysis" style="rounded=1;whiteSpace=wrap;html=1;fillColor=#E1BEE7;strokeColor=#7B1FA2;" vertex="1" parent="platform-cluster">
          <mxGeometry x="290" y="40" width="80" height="50" as="geometry" />
        </mxCell>
        
        <mxCell id="compliance" value="⚖️ Compliance&#xa;Engine" style="rounded=1;whiteSpace=wrap;html=1;fillColor=#E1BEE7;strokeColor=#7B1FA2;" vertex="1" parent="platform-cluster">
          <mxGeometry x="20" y="110" width="80" height="50" as="geometry" />
        </mxCell>
        
        <mxCell id="risk" value="📊 Risk&#xa;Assessment" style="rounded=1;whiteSpace=wrap;html=1;fillColor=#E1BEE7;strokeColor=#7B1FA2;" vertex="1" parent="platform-cluster">
          <mxGeometry x="110" y="110" width="80" height="50" as="geometry" />
        </mxCell>
        
        <mxCell id="decision" value="🧠 Decision&#xa;Synthesis" style="rounded=1;whiteSpace=wrap;html=1;fillColor=#E1BEE7;strokeColor=#7B1FA2;" vertex="1" parent="platform-cluster">
          <mxGeometry x="200" y="110" width="80" height="50" as="geometry" />
        </mxCell>
        
        <!-- AI/ML Intelligence -->
        <mxCell id="ai-cluster" value="AI/ML Intelligence Layer" style="swimlane;whiteSpace=wrap;html=1;fillColor=#E8F5E8;strokeColor=#4CAF50;fontSize=14;fontStyle=1;" vertex="1" parent="1">
          <mxGeometry x="50" y="320" width="520" height="150" as="geometry" />
        </mxCell>
        
        <mxCell id="bedrock" value="Amazon Bedrock&#xa;(Claude 3.7 Sonnet)" style="rounded=1;whiteSpace=wrap;html=1;fillColor=#C8E6C9;strokeColor=#388E3C;" vertex="1" parent="ai-cluster">
          <mxGeometry x="20" y="40" width="100" height="60" as="geometry" />
        </mxCell>
        
        <mxCell id="textract" value="Amazon Textract&#xa;(OCR)" style="rounded=1;whiteSpace=wrap;html=1;fillColor=#C8E6C9;strokeColor=#388E3C;" vertex="1" parent="ai-cluster">
          <mxGeometry x="140" y="40" width="100" height="60" as="geometry" />
        </mxCell>
        
        <mxCell id="comprehend" value="Amazon Comprehend&#xa;(Vietnamese NLP)" style="rounded=1;whiteSpace=wrap;html=1;fillColor=#C8E6C9;strokeColor=#388E3C;" vertex="1" parent="ai-cluster">
          <mxGeometry x="260" y="40" width="100" height="60" as="geometry" />
        </mxCell>
        
        <mxCell id="sagemaker" value="Amazon SageMaker&#xa;(ML Models)" style="rounded=1;whiteSpace=wrap;html=1;fillColor=#C8E6C9;strokeColor=#388E3C;" vertex="1" parent="ai-cluster">
          <mxGeometry x="380" y="40" width="100" height="60" as="geometry" />
        </mxCell>
        
        <!-- Data & Storage -->
        <mxCell id="data-cluster" value="Data & Storage Layer" style="swimlane;whiteSpace=wrap;html=1;fillColor=#FFF8E1;strokeColor=#FFC107;fontSize=14;fontStyle=1;" vertex="1" parent="1">
          <mxGeometry x="590" y="320" width="520" height="150" as="geometry" />
        </mxCell>
        
        <mxCell id="s3" value="Amazon S3&#xa;(Data Lake)" style="rounded=1;whiteSpace=wrap;html=1;fillColor=#FFF9C4;strokeColor=#F57F17;" vertex="1" parent="data-cluster">
          <mxGeometry x="20" y="40" width="100" height="60" as="geometry" />
        </mxCell>
        
        <mxCell id="rds" value="Amazon RDS&#xa;(PostgreSQL)" style="rounded=1;whiteSpace=wrap;html=1;fillColor=#FFF9C4;strokeColor=#F57F17;" vertex="1" parent="data-cluster">
          <mxGeometry x="140" y="40" width="100" height="60" as="geometry" />
        </mxCell>
        
        <mxCell id="dynamodb" value="Amazon DynamoDB&#xa;(NoSQL)" style="rounded=1;whiteSpace=wrap;html=1;fillColor=#FFF9C4;strokeColor=#F57F17;" vertex="1" parent="data-cluster">
          <mxGeometry x="260" y="40" width="100" height="60" as="geometry" />
        </mxCell>
        
        <mxCell id="redis" value="ElastiCache Redis&#xa;(Caching)" style="rounded=1;whiteSpace=wrap;html=1;fillColor=#FFF9C4;strokeColor=#F57F17;" vertex="1" parent="data-cluster">
          <mxGeometry x="380" y="40" width="100" height="60" as="geometry" />
        </mxCell>
        
        <!-- Compliance Framework -->
        <mxCell id="compliance-cluster" value="Banking Compliance Framework" style="swimlane;whiteSpace=wrap;html=1;fillColor=#FFEBEE;strokeColor=#F44336;fontSize=14;fontStyle=1;" vertex="1" parent="1">
          <mxGeometry x="50" y="500" width="1060" height="120" as="geometry" />
        </mxCell>
        
        <mxCell id="sbv-compliance" value="🇻🇳 SBV Regulations&#xa;(Circular 39/2016)" style="rounded=1;whiteSpace=wrap;html=1;fillColor=#FFCDD2;strokeColor=#D32F2F;" vertex="1" parent="compliance-cluster">
          <mxGeometry x="20" y="40" width="120" height="60" as="geometry" />
        </mxCell>
        
        <mxCell id="ucp600" value="🌍 UCP 600&#xa;(Trade Finance)" style="rounded=1;whiteSpace=wrap;html=1;fillColor=#FFCDD2;strokeColor=#D32F2F;" vertex="1" parent="compliance-cluster">
          <mxGeometry x="160" y="40" width="120" height="60" as="geometry" />
        </mxCell>
        
        <mxCell id="basel3" value="🏦 Basel III&#xa;(Risk Management)" style="rounded=1;whiteSpace=wrap;html=1;fillColor=#FFCDD2;strokeColor=#D32F2F;" vertex="1" parent="compliance-cluster">
          <mxGeometry x="300" y="40" width="120" height="60" as="geometry" />
        </mxCell>
        
        <mxCell id="aml" value="🔒 AML/CFT&#xa;(Anti-Money Laundering)" style="rounded=1;whiteSpace=wrap;html=1;fillColor=#FFCDD2;strokeColor=#D32F2F;" vertex="1" parent="compliance-cluster">
          <mxGeometry x="440" y="40" width="120" height="60" as="geometry" />
        </mxCell>
        
        <mxCell id="swift-compliance" value="💼 SWIFT&#xa;(Messaging Standards)" style="rounded=1;whiteSpace=wrap;html=1;fillColor=#FFCDD2;strokeColor=#D32F2F;" vertex="1" parent="compliance-cluster">
          <mxGeometry x="580" y="40" width="120" height="60" as="geometry" />
        </mxCell>
        
        <mxCell id="audit" value="📋 Audit Trails&#xa;(Regulatory Reporting)" style="rounded=1;whiteSpace=wrap;html=1;fillColor=#FFCDD2;strokeColor=#D32F2F;" vertex="1" parent="compliance-cluster">
          <mxGeometry x="720" y="40" width="120" height="60" as="geometry" />
        </mxCell>
        
        <mxCell id="kyc" value="👤 KYC/CDD&#xa;(Customer Due Diligence)" style="rounded=1;whiteSpace=wrap;html=1;fillColor=#FFCDD2;strokeColor=#D32F2F;" vertex="1" parent="compliance-cluster">
          <mxGeometry x="860" y="40" width="120" height="60" as="geometry" />
        </mxCell>
        
        <!-- Performance Metrics -->
        <mxCell id="metrics" value="📊 Performance: 10,000+ docs/day | 99.5% OCR accuracy | 99.99% availability | $442.57/month" style="text;html=1;strokeColor=#4CAF50;fillColor=#E8F5E8;align=center;verticalAlign=middle;whiteSpace=wrap;rounded=1;fontSize=12;fontStyle=1;" vertex="1" parent="1">
          <mxGeometry x="300" y="650" width="569" height="40" as="geometry" />
        </mxCell>
        
        <!-- Connections -->
        <mxCell id="conn1" style="edgeStyle=orthogonalEdgeStyle;rounded=0;orthogonalLoop=1;jettySize=auto;html=1;strokeWidth=2;strokeColor=#1976D2;" edge="1" parent="1" source="swift" target="waf">
          <mxGeometry relative="1" as="geometry" />
        </mxCell>
        
        <mxCell id="conn2" style="edgeStyle=orthogonalEdgeStyle;rounded=0;orthogonalLoop=1;jettySize=auto;html=1;strokeWidth=2;strokeColor=#F57C00;" edge="1" parent="1" source="api-gateway" target="supervisor">
          <mxGeometry relative="1" as="geometry" />
        </mxCell>
        
        <mxCell id="conn3" style="edgeStyle=orthogonalEdgeStyle;rounded=0;orthogonalLoop=1;jettySize=auto;html=1;strokeWidth=2;strokeColor=#7B1FA2;" edge="1" parent="1" source="supervisor" target="bedrock">
          <mxGeometry relative="1" as="geometry" />
        </mxCell>
        
        <mxCell id="conn4" style="edgeStyle=orthogonalEdgeStyle;rounded=0;orthogonalLoop=1;jettySize=auto;html=1;strokeWidth=2;strokeColor=#7B1FA2;" edge="1" parent="1" source="document" target="s3">
          <mxGeometry relative="1" as="geometry" />
        </mxCell>
        
      </root>
    </mxGraphModel>
  </diagram>
</mxfile>
